{"title":"Veronika Decides to Die 2009 DVD9rip English Klam","uid":6040105,"size":1692184321,"categoryP":"video","categoryS":"movies","magnet":"?xt=urn:btih:77e4b66c5cc4dc42a017bcdfdba7b629f7140f67&amp;dn=Veronika+Decides+to+Die+2009+DVD9rip+English+Klam&amp;tr=udp%3A%2F%2Ftracker.openbittorrent.com%3A80&amp;tr=udp%3A%2F%2Fopen.demonii.com%3A1337&amp;tr=udp%3A%2F%2Ftracker.coppersurfer.tk%3A6969&amp;tr=udp%3A%2F%2Fexodus.desync.com%3A6969","seeders":2,"leechers":1,"uploader":"Klambake","files":-1,"time":1292356985,"description":"With: Sarah Michelle Gellar, David Thewlis and Jonathan Tucker\n\nThe story centers on Veronika, a woman in her mid twenties who appears to have everything: good looks, good job and a great life ahead of her. Yet she decides to end her own life. She is unsuccessful and awakens in a mental hospital where she learns that she a short time to live. However in the hospital she meets people who are only 'insane' because they don't always follow society's rules. With little left to lose, Veronika embarks on a journey on which she frees herself to experience relationships and emotions and ultimately discovers what it means to live.\n\nGeneral:\n\nComplete name                    : Veronika\\Decides to Die.avi\nFormat                           : AVI\nFormat/Info                      : Audio Video Interleave\nFile size                        : 1.57 GiB\nDuration                         : 1h 38mn\nOverall bit rate                 : 2270 Kbps\n\nVideo:\n\nFormat                           : MPEG-4 Visual\nFormat profile                   : Simple@L3\nFormat settings, BVOP            : No\nFormat settings, QPel            : No\nFormat settings, GMC             : No warppoints\nFormat settings, Matrix          : Default (H.263)\nCodec ID                         : XVID\nCodec ID/Hint                    : XviD\nDuration                         : 1h 38mn\nBit rate                         : 1811 Kbps\nWidth                            : 720 pixels\nHeight                           : 576 pixels\nDisplay aspect ratio             : 5:4\nFrame rate                       : 25.000 fps\nStandard                         : PAL\nColor space                      : YUV\nChroma subsampling               : 4:2:0\nBit depth                        : 8 bits\nScan type                        : Progressive\nBits/(Pixel*Frame)               : 0.175\nStream size                      : 1.25 GiB (80%)\nWriting library                  : XviD 1.1.2 (UTC 2006-11-01)\n\nAudio:\n\nFormat                           : AC-3\nFormat/Info                      : Audio Coding 3\nMode extension                   : CM (complete main)\nCodec ID                         : 2000\nDuration                         : 1h 38mn\nBit rate mode                    : Constant\nBit rate                         : 448 Kbps\nChannel(s)                       : 6 channels\nChannel positions                : Front: L C R, Side: L R, LFE\nSampling rate                    : 48.0 KHz\nBit depth                        : 16 bits\nStream size                      : 316 MiB (20%)\nAlignment                        : Aligned on interleaves\nInterleave, duration             : 32 ms (0.80 video frame)","torrent":{"xt":"urn:btih:77e4b66c5cc4dc42a017bcdfdba7b629f7140f67","amp;dn":"Veronika+Decides+to+Die+2009+DVD9rip+English+Klam","amp;tr":["udp%3A%2F%2Ftracker.openbittorrent.com%3A80","udp%3A%2F%2Fopen.demonii.com%3A1337","udp%3A%2F%2Ftracker.coppersurfer.tk%3A6969","udp%3A%2F%2Fexodus.desync.com%3A6969"],"infoHash":"77e4b66c5cc4dc42a017bcdfdba7b629f7140f67","infoHashBuffer":{"type":"Buffer","data":[119,228,182,108,92,196,220,66,160,23,188,223,219,167,182,41,247,20,15,103]},"announce":[],"urlList":[]}}